<?xml version="1.0" encoding="UTF-8" standalone="no"?>
<!-- Created with Inkscape (http://www.inkscape.org/) -->

<svg
   width="54.525398mm"
   height="52.483356mm"
   viewBox="0 0 54.525398 52.483357"
   version="1.1"
   id="svg5"
   xml:space="preserve"
   inkscape:export-filename="123.png"
   inkscape:export-xdpi="96"
   inkscape:export-ydpi="96"
   sodipodi:docname="android_devices.svg"
   inkscape:version="1.2.1 (9c6d41e410, 2022-07-14)"
   xmlns:inkscape="http://www.inkscape.org/namespaces/inkscape"
   xmlns:sodipodi="http://sodipodi.sourceforge.net/DTD/sodipodi-0.dtd"
   xmlns="http://www.w3.org/2000/svg"
   xmlns:svg="http://www.w3.org/2000/svg"><sodipodi:namedview
     id="namedview7"
     pagecolor="#ffffff"
     bordercolor="#000000"
     borderopacity="0.25"
     inkscape:showpageshadow="2"
     inkscape:pageopacity="0.0"
     inkscape:pagecheckerboard="0"
     inkscape:deskcolor="#d1d1d1"
     inkscape:document-units="mm"
     showgrid="false"
     inkscape:zoom="2.0273126"
     inkscape:cx="91.747073"
     inkscape:cy="292.99872"
     inkscape:window-width="1440"
     inkscape:window-height="829"
     inkscape:window-x="-8"
     inkscape:window-y="-8"
     inkscape:window-maximized="1"
     inkscape:current-layer="layer1" /><defs
     id="defs2" /><g
     inkscape:label="Warstwa 1"
     inkscape:groupmode="layer"
     id="layer1"
     transform="translate(-60.615234,-112.63477)"><g
       transform="matrix(0.78503407,0,0,0.78503407,-335.76717,-447.31415)"
       id="g7776"
       style="display:none"><path
         id="use7768"
         d="m 556.16236,754.3213 c -0.0348,-0.0456 -0.0799,-0.0728 -0.13673,-0.0814 l -1.19138,-0.18227 c -0.0651,-0.20833 -0.15414,-0.42097 -0.26698,-0.638 0.0781,-0.10852 0.19522,-0.26147 0.35145,-0.45901 0.15622,-0.19753 0.2669,-0.34177 0.33202,-0.43295 0.0348,-0.0478 0.052,-0.0977 0.052,-0.14975 0,-0.0607 -0.0151,-0.10844 -0.0456,-0.1432 -0.15623,-0.22143 -0.5143,-0.59029 -1.07423,-1.10683 -0.052,-0.0434 -0.10628,-0.0651 -0.16262,-0.0651 -0.0651,0 -0.11723,0.0195 -0.1563,0.0585 l -0.9244,0.69665 c -0.17804,-0.0912 -0.37334,-0.17149 -0.58598,-0.24133 l -0.18228,-1.19785 c -0.004,-0.0564 -0.0293,-0.10308 -0.0749,-0.14 -0.0456,-0.0369 -0.0987,-0.0553 -0.15958,-0.0553 h -1.44558 c -0.12585,0 -0.20401,0.0607 -0.23437,0.18228 -0.0564,0.21695 -0.11939,0.62058 -0.18883,1.21063 -0.20401,0.0652 -0.40115,0.14768 -0.59245,0.24748 l -0.89843,-0.69665 c -0.0564,-0.0434 -0.11283,-0.065 -0.16925,-0.065 -0.0955,0 -0.30054,0.15511 -0.61523,0.46548 -0.31468,0.31037 -0.52836,0.54363 -0.64167,0.69985 -0.0391,0.0564 -0.0586,0.10636 -0.0586,0.14975 0,0.0521 0.0217,0.1042 0.065,0.15623 0.29079,0.3516 0.52301,0.65102 0.69665,0.8985 -0.10851,0.19962 -0.19314,0.39931 -0.25387,0.59893 l -1.21064,0.18227 c -0.0477,0.009 -0.0889,0.0369 -0.1237,0.0847 -0.0348,0.0477 -0.0521,0.0976 -0.0521,0.14967 v 1.44557 c 0,0.0565 0.0173,0.1074 0.0521,0.15295 0.0348,0.0456 0.0799,0.0729 0.13673,0.0815 l 1.19146,0.1758 c 0.0607,0.21264 0.14967,0.42744 0.2669,0.64407 -0.0781,0.10852 -0.1953,0.26147 -0.35153,0.45901 -0.15622,0.19753 -0.26698,0.34177 -0.33202,0.43295 -0.0348,0.0479 -0.0521,0.0976 -0.0521,0.14975 0,0.0564 0.0152,0.10628 0.0455,0.14967 0.16925,0.23446 0.52733,0.59909 1.07423,1.09381 0.0478,0.0478 0.10205,0.0716 0.16278,0.0716 0.0651,0 0.11939,-0.0195 0.16278,-0.0585 l 0.918,-0.69674 c 0.17804,0.0912 0.37334,0.17149 0.58598,0.24133 l 0.18228,1.19785 c 0.004,0.0564 0.0293,0.10308 0.0749,0.14 0.0456,0.037 0.0988,0.0553 0.1595,0.0553 h 1.44558 c 0.12601,0 0.20409,-0.0607 0.23453,-0.18228 0.0563,-0.21703 0.11923,-0.62058 0.18867,-1.21063 0.20401,-0.0651 0.40195,-0.14768 0.59245,-0.24748 l 0.89851,0.70321 c 0.0607,0.039 0.11723,0.0585 0.16925,0.0585 0.0954,0 0.29942,-0.15399 0.61187,-0.4622 0.31261,-0.30813 0.52741,-0.54259 0.64408,-0.70321 0.0391,-0.0434 0.0587,-0.0933 0.0587,-0.14967 0,-0.0564 -0.0217,-0.11083 -0.0651,-0.16278 -0.31245,-0.38197 -0.54466,-0.68139 -0.69665,-0.89842 0.0868,-0.16062 0.17148,-0.35808 0.25395,-0.59246 l 1.20424,-0.18219 c 0.052,-0.009 0.0956,-0.037 0.13026,-0.0848 0.0347,-0.0478 0.0519,-0.0977 0.0519,-0.14975 v -1.44557 c 10e-6,-0.0564 -0.0172,-0.10732 -0.052,-0.15295 m -3.76936,2.04098 c -0.32547,0.32556 -0.71831,0.48833 -1.17843,0.48833 -0.46012,0 -0.85288,-0.16277 -1.17843,-0.48833 -0.32548,-0.32547 -0.48825,-0.71823 -0.48825,-1.17835 0,-0.46012 0.16269,-0.85288 0.48825,-1.17843 0.32555,-0.32548 0.71839,-0.48825 1.17843,-0.48825 0.46012,0 0.85296,0.16277 1.17843,0.48825 0.32548,0.32555 0.48825,0.71831 0.48825,1.17843 0,0.46012 -0.16277,0.85288 -0.48825,1.17835"
         style="fill:#000000;stroke-width:0.07991" /><g
         transform="matrix(0.5,0,0,0.5,281.7,383.08)"
         id="g7774"><path
           id="use7770"
           d="m 563.49227,752.56429 c -0.0557,-0.073 -0.12786,-0.11648 -0.21877,-0.13029 l -1.90626,-0.29165 c -0.10421,-0.33333 -0.24664,-0.67356 -0.42718,-1.02083 0.12492,-0.17363 0.31236,-0.41836 0.56233,-0.73443 0.24996,-0.31607 0.42705,-0.54686 0.53125,-0.69274 0.0556,-0.0765 0.0832,-0.15625 0.0832,-0.23961 0,-0.0972 -0.0242,-0.17351 -0.0729,-0.22913 -0.24997,-0.3543 -0.82291,-0.9445 -1.71882,-1.77099 -0.0831,-0.0694 -0.17005,-0.10408 -0.2602,-0.10408 -0.1042,0 -0.18757,0.0312 -0.25009,0.0936 l -1.47908,1.11468 c -0.28488,-0.14589 -0.59737,-0.27439 -0.9376,-0.38614 l -0.29165,-1.91662 c -0.007,-0.0903 -0.0469,-0.16494 -0.11981,-0.22401 -0.073,-0.0591 -0.1579,-0.0885 -0.25533,-0.0885 h -2.31299 c -0.20138,0 -0.32643,0.0972 -0.37501,0.29165 -0.0903,0.34714 -0.19103,0.99296 -0.30214,1.93708 -0.32642,0.10433 -0.64185,0.23629 -0.94795,0.39598 l -1.43753,-1.11468 c -0.0903,-0.0694 -0.18054,-0.10408 -0.27081,-0.10408 -0.15279,0 -0.48088,0.24818 -0.98439,0.74479 -0.50351,0.4966 -0.84541,0.86983 -1.02672,1.11979 -0.0625,0.0903 -0.0937,0.17019 -0.0937,0.23961 0,0.0834 0.0347,0.16673 0.10408,0.24997 0.46528,0.56258 0.83684,1.04168 1.11468,1.43766 -0.17363,0.31939 -0.30903,0.63891 -0.40621,0.95831 l -1.93708,0.29165 c -0.0763,0.0139 -0.14231,0.0591 -0.19792,0.13553 -0.0556,0.0763 -0.0834,0.15624 -0.0834,0.23948 v 2.31299 c 0,0.0904 0.0277,0.17184 0.0834,0.24472 0.0556,0.073 0.12786,0.11661 0.21876,0.13042 l 1.9064,0.28129 c 0.0972,0.34024 0.23948,0.68392 0.42705,1.03055 -0.12492,0.17364 -0.31249,0.41836 -0.56246,0.73443 -0.24996,0.31607 -0.42718,0.54686 -0.53126,0.69275 -0.0556,0.0766 -0.0834,0.15624 -0.0834,0.23961 0,0.0903 0.0243,0.17005 0.0729,0.23948 0.27081,0.37514 0.84375,0.95856 1.71882,1.75015 0.0765,0.0765 0.16328,0.11456 0.26045,0.11456 0.10421,0 0.19103,-0.0312 0.26045,-0.0936 l 1.46886,-1.11481 c 0.28487,0.14589 0.59736,0.27439 0.9376,0.38614 l 0.29165,1.91662 c 0.007,0.0903 0.0469,0.16494 0.1198,0.22401 0.0729,0.0592 0.15803,0.0885 0.25521,0.0885 h 2.31299 c 0.20163,0 0.32655,-0.0972 0.37526,-0.29165 0.0901,-0.34726 0.19077,-0.99296 0.30188,-1.93708 0.32643,-0.1042 0.64314,-0.23628 0.94796,-0.39598 l 1.43765,1.12517 c 0.0972,0.0624 0.18757,0.0936 0.27081,0.0936 0.15267,0 0.47909,-0.24638 0.97903,-0.73954 0.50018,-0.49303 0.84387,-0.86817 1.03055,-1.12517 0.0625,-0.0694 0.0938,-0.14921 0.0938,-0.23948 0,-0.0903 -0.0347,-0.17734 -0.10421,-0.26045 -0.49993,-0.61117 -0.87149,-1.09026 -1.11468,-1.43753 0.13885,-0.257 0.27438,-0.57294 0.40634,-0.94795 l 1.92685,-0.29152 c 0.0832,-0.0139 0.15292,-0.0592 0.20841,-0.13566 0.0555,-0.0765 0.0831,-0.15638 0.0831,-0.23961 v -2.31299 c 10e-6,-0.0903 -0.0275,-0.17172 -0.0832,-0.24473 m -6.03116,3.26568 c -0.52077,0.5209 -1.14933,0.78135 -1.88555,0.78135 -0.73622,0 -1.36465,-0.26045 -1.88555,-0.78135 -0.52077,-0.52078 -0.78122,-1.14921 -0.78122,-1.88543 0,-0.73621 0.26032,-1.36465 0.78122,-1.88555 0.5209,-0.52077 1.14946,-0.78122 1.88555,-0.78122 0.73622,0 1.36478,0.26045 1.88555,0.78122 0.52078,0.5209 0.78123,1.14934 0.78123,1.88555 0,0.73622 -0.26045,1.36465 -0.78123,1.88543"
           style="fill:#000000;stroke-width:0.12786" /><path
           id="use7772"
           d="m 563.85227,734.10429 c -0.0557,-0.073 -0.12786,-0.11648 -0.21877,-0.13029 l -1.90626,-0.29165 c -0.10421,-0.33333 -0.24664,-0.67356 -0.42718,-1.02083 0.12492,-0.17363 0.31236,-0.41836 0.56233,-0.73443 0.24996,-0.31607 0.42705,-0.54686 0.53125,-0.69274 0.0556,-0.0765 0.0832,-0.15625 0.0832,-0.23961 0,-0.0972 -0.0242,-0.17351 -0.0729,-0.22913 -0.24997,-0.3543 -0.82291,-0.9445 -1.71882,-1.77099 -0.0831,-0.0694 -0.17005,-0.10408 -0.2602,-0.10408 -0.1042,0 -0.18757,0.0312 -0.25009,0.0936 l -1.47908,1.11468 c -0.28488,-0.14589 -0.59737,-0.27439 -0.9376,-0.38614 l -0.29165,-1.91662 c -0.007,-0.0903 -0.0469,-0.16494 -0.11981,-0.22401 -0.073,-0.0591 -0.1579,-0.0885 -0.25533,-0.0885 h -2.31299 c -0.20138,0 -0.32643,0.0972 -0.37501,0.29165 -0.0903,0.34714 -0.19103,0.99296 -0.30214,1.93708 -0.32642,0.10433 -0.64185,0.23629 -0.94795,0.39598 l -1.43753,-1.11468 c -0.0903,-0.0694 -0.18054,-0.10408 -0.27081,-0.10408 -0.15279,0 -0.48088,0.24818 -0.98439,0.74479 -0.50351,0.4966 -0.84541,0.86983 -1.02672,1.11979 -0.0625,0.0903 -0.0937,0.17019 -0.0937,0.23961 0,0.0834 0.0347,0.16673 0.10408,0.24997 0.46528,0.56258 0.83684,1.04168 1.11468,1.43766 -0.17363,0.31939 -0.30903,0.63891 -0.40621,0.95831 l -1.93708,0.29165 c -0.0763,0.0139 -0.14231,0.0591 -0.19792,0.13553 -0.0556,0.0763 -0.0834,0.15624 -0.0834,0.23948 v 2.31299 c 0,0.0904 0.0277,0.17184 0.0834,0.24472 0.0556,0.073 0.12786,0.11661 0.21876,0.13042 l 1.9064,0.28129 c 0.0972,0.34024 0.23948,0.68392 0.42705,1.03055 -0.12492,0.17364 -0.31249,0.41836 -0.56246,0.73443 -0.24996,0.31607 -0.42718,0.54686 -0.53126,0.69275 -0.0556,0.0766 -0.0834,0.15624 -0.0834,0.23961 0,0.0903 0.0243,0.17005 0.0729,0.23948 0.27081,0.37514 0.84375,0.95856 1.71882,1.75015 0.0765,0.0765 0.16328,0.11456 0.26045,0.11456 0.10421,0 0.19103,-0.0312 0.26045,-0.0936 l 1.46886,-1.11481 c 0.28487,0.14589 0.59736,0.27439 0.9376,0.38614 l 0.29165,1.91662 c 0.007,0.0903 0.0469,0.16494 0.1198,0.22401 0.0729,0.0592 0.15803,0.0885 0.25521,0.0885 h 2.31299 c 0.20163,0 0.32655,-0.0972 0.37526,-0.29165 0.0901,-0.34726 0.19077,-0.99296 0.30188,-1.93708 0.32643,-0.1042 0.64314,-0.23628 0.94796,-0.39598 l 1.43765,1.12517 c 0.0972,0.0624 0.18757,0.0936 0.27081,0.0936 0.15267,0 0.47909,-0.24638 0.97903,-0.73954 0.50018,-0.49303 0.84387,-0.86817 1.03055,-1.12517 0.0625,-0.0694 0.0938,-0.14921 0.0938,-0.23948 0,-0.0903 -0.0347,-0.17734 -0.10421,-0.26045 -0.49993,-0.61117 -0.87149,-1.09026 -1.11468,-1.43753 0.13885,-0.257 0.27438,-0.57294 0.40634,-0.94795 l 1.92685,-0.29152 c 0.0832,-0.0139 0.15292,-0.0592 0.20841,-0.13566 0.0555,-0.0765 0.0831,-0.15638 0.0831,-0.23961 v -2.31299 c 10e-6,-0.0903 -0.0275,-0.17172 -0.0832,-0.24473 m -6.03116,3.26568 c -0.52077,0.5209 -1.14933,0.78135 -1.88555,0.78135 -0.73622,0 -1.36465,-0.26045 -1.88555,-0.78135 -0.52077,-0.52078 -0.78122,-1.14921 -0.78122,-1.88543 0,-0.73621 0.26032,-1.36465 0.78122,-1.88555 0.5209,-0.52077 1.14946,-0.78122 1.88555,-0.78122 0.73622,0 1.36478,0.26045 1.88555,0.78122 0.52078,0.5209 0.78123,1.14934 0.78123,1.88555 0,0.73622 -0.26045,1.36465 -0.78123,1.88543"
           style="fill:#000000;stroke-width:0.12786" /></g></g><g
       id="g3083"
       transform="matrix(0.25377846,0,0,0.25377846,75.677149,111.91381)"
       style="stroke-width:4.59817"
       inkscape:export-filename="21123.png"
       inkscape:export-xdpi="96"
       inkscape:export-ydpi="96"><path
         style="color:#000000;fill:#000000;-inkscape-stroke:none"
         d="m 69.216797,56.849609 c -7.508672,0 -13.626953,6.116329 -13.626953,13.625 V 196.02344 c 0,7.50867 6.11828,13.625 13.626953,13.625 h 52.308593 c 7.50867,0 13.625,-6.11633 13.625,-13.625 V 70.474609 c 0,-7.508672 -6.11633,-13.625 -13.625,-13.625 z m 0,4.597657 h 52.308593 c 5.04082,0 9.02539,3.98652 9.02539,9.027343 V 196.02344 c 0,5.04082 -3.98457,9.02734 -9.02539,9.02734 H 69.216797 c -5.040823,0 -9.027344,-3.98652 -9.027344,-9.02734 V 70.474609 c 0,-5.040823 3.98652,-9.027343 9.027344,-9.027343 z"
         id="rect788" /><path
         class="st0"
         d="M 128.32863,206.17281 H 60.835529 c 1.080066,-11.43988 7.619239,-21.21188 17.273711,-26.44322 l -5.598707,-9.69856 c -0.315952,-0.54376 -0.132263,-1.2344 0.41145,-1.55032 0.543705,-0.31595 1.234358,-0.13233 1.550299,0.41146 l 5.672183,9.82343 c 4.327611,-1.97644 9.198931,-3.0785 14.437619,-3.0785 5.238695,0 10.110016,1.10206 14.437616,3.0785 l 5.67217,-9.82343 c 0.30841,-0.54372 1.0066,-0.72741 1.54296,-0.41146 0.5364,0.31596 0.72741,1.00656 0.41149,1.55032 l -5.59872,9.69856 c 9.6618,5.23134 16.20099,15.00334 17.28103,26.44322 z m -18.25822,-9.47815 c 1.56498,0 2.83607,-1.27108 2.82871,-2.82871 0,-1.55767 -1.26373,-2.82875 -2.82871,-2.82875 -1.55767,0 -2.82879,1.26373 -2.82879,2.82875 0,1.55763 1.26377,2.82871 2.82879,2.82871 z m -30.983966,0 c 1.564992,0 2.836088,-1.27108 2.828739,-2.82871 0,-1.55767 -1.263747,-2.82875 -2.828739,-2.82875 -1.557647,0 -2.828747,1.26373 -2.828747,2.82875 0,1.55763 1.263751,2.82871 2.828747,2.82871 z"
         id="path3445"
         style="fill:#000000;stroke-width:0.0734735" /><circle
         style="fill:#000000"
         id="path896"
         cx="68.672523"
         cy="68.672531"
         r="2.5169489" /><path
         style="fill:#000000"
         d="M 90.924786,92.812498 V 147.55614"
         id="path3472" /></g><g
       id="g3410"><circle
         style="fill:#000000;stroke-width:5.91438"
         id="path896-0"
         cx="65.208549"
         cy="116.76112"
         r="1.0203503" /><path
         style="color:#000000;fill:#000000;-inkscape-stroke:none"
         d="m 65.882812,112.63477 c -2.907582,0 -5.267578,2.36194 -5.267578,5.26953 v 36.29492 c 0,2.90757 2.359996,5.26953 5.267578,5.26953 h 5.876954 6.722656 v -1.26953 h -6.722656 -5.876954 c -2.226366,0 -3.998046,-1.77364 -3.998046,-4 V 117.9043 c 0,-2.22637 1.77168,-4 3.998046,-4 h 43.990238 c 2.22637,0 4,1.77363 4,4 v 36.29492 c 0,2.22636 -1.77363,4 -4,4 h -0.41407 v 1.26953 h 0.41407 c 2.90758,0 5.26758,-2.36195 5.26758,-5.26953 V 117.9043 c 0,-2.90759 -2.36,-5.26953 -5.26758,-5.26953 z m 18.960938,45.56445 v 1.26953 h 5.644531 v -1.26953 z"
         id="rect3143" /></g><g
       id="g4104"
       transform="translate(5.0898662,-4.6943708)"><g
         id="rect4079"><path
           style="color:#000000;fill:#000000;stroke-width:1.127;-inkscape-stroke:none"
           d="m 74.506828,155.48184 v -3.71923 c 0,-0.53757 0.432775,-0.97034 0.970347,-0.97034 v 0 h 2.119808 c 0.537571,0 0.970346,0.43277 0.970346,0.97034 v 3.7244"
           id="path6017" /><path
           style="color:#000000;fill:#000000;-inkscape-stroke:none"
           d="m 75.476562,150.22852 c -0.839999,0 -1.533203,0.6932 -1.533203,1.5332 v 3.7207 h 1.126953 v -3.7207 c 0,-0.23514 0.171108,-0.40625 0.40625,-0.40625 h 2.121094 c 0.235142,0 0.40625,0.17111 0.40625,0.40625 v 3.72461 h 1.126953 v -3.72461 c 0,-0.84 -0.693203,-1.5332 -1.533203,-1.5332 z"
           id="path6019" /></g><g
         id="path6166"><path
           style="color:#000000;fill:#000000;stroke-width:1.127;-inkscape-stroke:none"
           d="m 78.567329,164.34092 v 3.93782 c 0,0.53757 -0.432775,0.97035 -0.970346,0.97035 h -2.119808 c -0.537572,0 -0.970347,-0.43278 -0.970347,-0.97035 l 10e-7,-3.93265"
           id="path6023" /><path
           style="color:#000000;fill:#000000;-inkscape-stroke:none"
           d="m 78.003906,164.3418 v 3.9375 c 0,0.23513 -0.171115,0.40625 -0.40625,0.40625 h -2.121094 c -0.235135,0 -0.40625,-0.17112 -0.40625,-0.40625 v -3.9336 h -1.126953 v 3.9336 c 0,0.84 0.693197,1.5332 1.533203,1.5332 h 2.121094 c 0.840007,0 1.533203,-0.6932 1.533203,-1.5332 v -3.9375 z"
           id="path6025" /></g><path
         style="color:#000000;fill:#000000;fill-rule:evenodd;-inkscape-stroke:none"
         d="m 76.53125,154.47656 c -2.996185,0 -5.4375,2.44132 -5.4375,5.4375 0,2.99619 2.441315,5.4375 5.4375,5.4375 2.996185,0 5.4375,-2.44131 5.4375,-5.4375 0,-2.99618 -2.441315,-5.4375 -5.4375,-5.4375 z m 0,1.12696 c 2.387109,0 4.308594,1.92343 4.308594,4.31054 0,2.38711 -1.921485,4.31055 -4.308594,4.31055 -2.387109,0 -4.310547,-1.92344 -4.310547,-4.31055 0,-2.38711 1.923438,-4.31054 4.310547,-4.31054 z"
         id="path4025" /><path
         class="st0"
         d="m 81.748949,161.00701 -4.201016,4.161 c -0.638052,-0.77865 -0.833479,-1.79004 -0.555062,-2.71086 l -0.946409,-0.25851 c -0.05316,-0.0143 -0.08433,-0.0687 -0.06997,-0.12186 0.01435,-0.0532 0.06867,-0.0843 0.12183,-0.07 l 0.958682,0.26175 c 0.147517,-0.38982 0.382783,-0.75874 0.708858,-1.08171 0.326075,-0.32297 0.697263,-0.55465 1.088442,-0.69847 l -0.252569,-0.96114 c -0.0143,-0.0528 0.01783,-0.10732 0.07071,-0.1207 0.05288,-0.0134 0.107347,0.0178 0.121192,0.0711 l 0.24944,0.94884 c 0.923899,-0.27005 1.933372,-0.065 2.705875,0.58053 z m -1.720795,0.53568 c 0.09741,-0.0965 0.09817,-0.25396 0.0017,-0.35046 -0.09604,-0.097 -0.253053,-0.0982 -0.350463,-0.002 -0.09696,0.096 -0.09817,0.25306 -0.0017,0.35047 0.09603,0.0969 0.253049,0.0982 0.350462,0.002 z m -1.928555,1.91018 c 0.09741,-0.0965 0.09817,-0.25396 0.0017,-0.35046 -0.09604,-0.097 -0.253055,-0.0982 -0.350465,-0.002 -0.09695,0.096 -0.09816,0.25306 -0.0017,0.35047 0.09603,0.0969 0.253048,0.0982 0.350459,0.002 z"
         id="path3445-4"
         style="fill:#000000;stroke-width:0.00643684" /><path
         class="st0"
         d="M -54.729682,95.938995 V 30.984052 c 11.009651,1.039447 20.414189,7.33271 25.448793,16.624114 l 9.333813,-5.388164 c 0.523332,-0.304064 1.188002,-0.127268 1.492027,0.39598 0.304139,0.523256 0.12742,1.187937 -0.395988,1.491996 l -9.453989,5.458875 c 1.902083,4.164864 2.962702,8.852992 2.962702,13.894673 0,5.041688 -1.060619,9.72982 -2.962702,13.894672 l 9.453989,5.458863 c 0.523256,0.29682 0.700051,0.968744 0.395988,1.484935 -0.304139,0.516229 -0.968695,0.700055 -1.492027,0.396015 l -9.333813,-5.388172 c -5.034604,9.298458 -14.439142,15.591732 -25.448793,16.631156 z m 9.121712,-17.571598 c 0,1.506126 1.223269,2.729414 2.722312,2.722334 1.499118,0 2.722387,-1.216208 2.722387,-2.722334 0,-1.499092 -1.216216,-2.72241 -2.722387,-2.72241 -1.499043,0 -2.722312,1.216246 -2.722312,2.72241 z m 0,-29.818777 c 0,1.506137 1.223269,2.729433 2.722312,2.722361 1.499118,0 2.722387,-1.216224 2.722387,-2.722361 0,-1.499069 -1.216216,-2.722369 -2.722387,-2.722369 -1.499043,0 -2.722312,1.216227 -2.722312,2.722369 z"
         id="path3445-3"
         style="fill:#000000;stroke-width:0.0707105"
         transform="matrix(0.25377846,0,0,0.25377846,70.587283,116.60818)" /></g></g><style
     type="text/css"
     id="style3443">.st0{fill:#3DDC84;}</style></svg>
